# Blender 4.0.0
# www.blender.org
mtllib RANDOM.mtl
o Cube
v 0.840491 2.359068 -1.632814
v 0.901559 -0.441286 -1.292467
v 0.840806 2.398566 1.649261
v 0.603879 -0.518373 1.554169
v -1.159509 2.359068 -1.632814
v -1.098441 -0.441286 -1.292467
v -1.159194 2.398566 1.649261
v -1.396121 -0.518373 1.554169
v 1.000000 1.020675 -1.000000
v -1.000000 1.020675 1.000000
v 1.000000 1.020675 1.000000
v -1.000000 1.020675 -1.000000
v 0.401559 -0.441286 -1.292467
v -0.098441 -0.441286 -1.292467
v -0.598441 -0.441286 -1.292467
v 0.340806 2.398566 1.649261
v -0.159194 2.398566 1.649261
v -0.659194 2.398566 1.649261
v -0.896121 -0.518373 1.554169
v -0.396121 -0.518373 1.554169
v 0.103879 -0.518373 1.554169
v -0.659509 2.359068 -1.632814
v -0.159509 2.359068 -1.632814
v 0.340491 2.359068 -1.632814
v -0.500000 1.020675 -1.000000
v 0.000000 1.020675 -1.000000
v 0.500000 1.020675 -1.000000
v 0.500000 1.020675 1.000000
v 0.000000 1.020675 1.000000
v -0.500000 1.020675 1.000000
v -1.000000 0.020675 -0.333333
v -1.000000 0.020675 0.333333
v 1.000000 2.020675 -0.333333
v 1.000000 2.020675 0.333333
v -1.000000 2.020675 0.333333
v -1.000000 2.020675 -0.333333
v 1.000000 0.020675 0.333333
v 1.000000 0.020675 -0.333333
v 1.238468 0.985056 -0.352368
v 1.238468 0.985056 0.314299
v -1.345532 0.963857 0.098000
v -1.345532 0.963857 -0.568667
v -0.500000 0.020675 -0.333333
v -0.500000 0.020675 0.333333
v 0.000000 0.020675 -0.333333
v 0.000000 0.020675 0.333333
v 0.500000 0.020675 -0.333333
v 0.500000 0.020675 0.333333
v 0.500000 2.020675 -0.333333
v 0.500000 2.020675 0.333333
v 0.000000 2.020675 -0.333333
v 0.000000 2.020675 0.333333
v -0.500000 2.020675 -0.333333
v -0.500000 2.020675 0.333333
vn -0.0000 0.9612 -0.2760
vn -0.0000 -0.4262 0.9046
vn -0.9938 0.0618 -0.0927
vn -0.0000 -0.9148 -0.4039
vn 0.9787 0.1139 0.1709
vn -0.0000 -0.4274 -0.9040
vn -0.0000 0.1962 -0.9806
vn 0.9467 -0.1786 0.2679
vn -0.9844 -0.0977 -0.1465
vn -0.0000 0.3388 0.9409
vn -0.0000 0.9677 0.2520
vn -0.0000 1.0000 -0.0000
vn -0.0000 -0.9009 0.4339
vn -0.0000 -1.0000 -0.0000
vn -0.9997 0.0138 -0.0207
vn -0.9390 -0.3440 -0.0000
vn 0.9778 -0.1161 -0.1742
vn 0.9708 -0.2400 -0.0000
vn 0.9771 0.1180 -0.1770
vn 0.9745 0.2244 -0.0000
vn -0.9960 0.0493 0.0740
vn -0.9505 0.3108 -0.0000
vt 0.003457 0.308733
vt 0.000213 0.226529
vt 0.143437 0.244275
vt 0.155263 0.271716
vt 0.283964 0.175984
vt 0.230091 0.125751
vt 0.459939 0.000213
vt 0.697887 0.025281
vt 0.607901 0.138713
vt 0.462135 0.117157
vt 0.540071 0.556318
vt 0.629980 0.503562
vt 0.653400 0.668661
vt 0.634248 0.698284
vt 0.354425 0.532466
vt 0.153909 0.504477
vt 0.202420 0.365681
vt 0.354425 0.394014
vt 0.506801 0.333271
vt 0.644507 0.239313
vt 0.654834 0.272844
vt 0.567794 0.401644
vt 0.183791 0.761639
vt 0.036574 0.688342
vt 0.084324 0.617225
vt 0.190152 0.724799
vt 0.834625 0.495784
vt 0.832935 0.645586
vt 0.217350 0.983310
vt 0.015829 0.999787
vt 0.000213 0.892028
vt 0.144192 0.876191
vt 0.603188 0.756200
vt 0.734038 0.851117
vt 0.678194 0.891930
vt 0.593942 0.777084
vt 0.813185 0.734013
vt 0.779281 0.797274
vt 0.616874 0.728729
vt 0.000213 0.821731
vt 0.159414 0.843066
vt 0.013047 0.753226
vt 0.173428 0.803116
vt 0.619491 0.167892
vt 0.459939 0.192845
vt 0.632289 0.202817
vt 0.475843 0.265898
vt 0.459939 0.786829
vt 0.459939 0.702919
vt 0.488631 0.623972
vt 0.186625 0.336327
vt 0.348971 0.304500
vt 0.170186 0.303728
vt 0.323626 0.236952
vt 0.074988 0.449397
vt 0.030057 0.384401
vt 0.754370 0.086859
vt 0.789770 0.160297
vt 0.383666 0.262876
vt 0.385723 0.223191
vt 0.438635 0.225933
vt 0.436579 0.265617
vt 0.804845 0.239212
vt 0.381610 0.302560
vt 0.434522 0.305301
vt 0.789164 0.335423
vt 0.379554 0.342244
vt 0.432466 0.344985
vt 0.319126 0.747925
vt 0.312073 0.832752
vt 0.850776 0.747186
vt 0.847423 0.685218
vt 0.930048 0.680747
vt 0.933401 0.742716
vt 0.279135 0.914279
vt 0.854128 0.809155
vt 0.936753 0.804685
vt 0.857481 0.871123
vt 0.940106 0.866653
vt 0.508988 0.988905
vt 0.917675 0.992724
vt 0.835050 0.997194
vt 0.167930 0.532892
vt 0.287388 0.654888
vt 0.844070 0.623249
vt 0.835050 0.500254
vt 0.917675 0.495784
vt 0.926695 0.618779
vt 0.661971 0.495359
vt 0.373673 0.426511
vt 0.426585 0.429253
vt 0.071742 0.000213
vt 0.426585 0.097034
vt 0.440691 0.186249
vt 0.387779 0.183507
vt 0.373673 0.094293
s 0
usemtl Material
f 54/1/1 35/2/1 7/3/1 18/4/1
f 30/5/2 18/4/2 7/3/2 10/6/2
f 42/7/3 36/8/3 5/9/3 12/10/3
f 48/11/4 37/12/4 4/13/4 21/14/4
f 40/15/5 34/16/5 3/17/5 11/18/5
f 27/19/6 24/20/6 1/21/6 9/22/6
f 13/23/7 27/24/7 9/25/7 2/26/7
f 37/12/8 40/27/8 11/28/8 4/13/8
f 31/29/9 42/30/9 12/31/9 6/32/9
f 19/33/10 30/34/10 10/35/10 8/36/10
f 4/13/10 11/28/10 28/37/10 21/14/10
f 21/14/10 28/37/10 29/38/10 20/39/10
f 20/39/10 29/38/10 30/34/10 19/33/10
f 6/32/7 12/31/7 25/40/7 15/41/7
f 15/41/7 25/40/7 26/42/7 14/43/7
f 14/43/7 26/42/7 27/24/7 13/23/7
f 12/10/6 5/9/6 22/44/6 25/45/6
f 25/45/6 22/44/6 23/46/6 26/47/6
f 26/47/6 23/46/6 24/20/6 27/19/6
f 32/48/4 44/49/4 19/33/4 8/36/4
f 44/49/4 46/50/4 20/39/4 19/33/4
f 46/50/4 48/11/4 21/14/4 20/39/4
f 11/18/2 3/17/2 16/51/2 28/52/2
f 28/52/2 16/51/2 17/53/2 29/54/2
f 29/54/2 17/53/2 18/4/2 30/5/2
f 34/16/1 50/55/1 16/51/1 3/17/1
f 50/55/1 52/56/1 17/53/1 16/51/1
f 52/56/1 54/1/1 18/4/1 17/53/1
f 23/46/11 22/44/11 53/57/11 51/58/11
f 51/59/12 53/60/12 54/61/12 52/62/12
f 24/20/11 23/46/11 51/58/11 49/63/11
f 49/64/12 51/59/12 52/62/12 50/65/12
f 1/21/11 24/20/11 49/63/11 33/66/11
f 33/67/12 49/64/12 50/65/12 34/68/12
f 14/43/13 13/23/13 47/69/13 45/70/13
f 45/71/14 47/72/14 48/73/14 46/74/14
f 15/41/13 14/43/13 45/70/13 43/75/13
f 43/76/14 45/71/14 46/74/14 44/77/14
f 6/32/13 15/41/13 43/75/13 31/29/13
f 31/78/14 43/76/14 44/77/14 32/79/14
f 8/36/15 10/35/15 41/80/15 32/48/15
f 32/79/16 41/81/16 42/82/16 31/78/16
f 2/26/17 9/25/17 39/83/17 38/84/17
f 38/85/18 39/86/18 40/87/18 37/88/18
f 9/22/19 1/21/19 33/66/19 39/89/19
f 39/90/20 33/67/20 34/68/20 40/91/20
f 13/23/13 2/26/13 38/84/13 47/69/13
f 47/72/14 38/85/14 37/88/14 48/73/14
f 10/6/21 7/3/21 35/2/21 41/92/21
f 41/93/22 35/94/22 36/95/22 42/96/22
f 22/44/11 5/9/11 36/8/11 53/57/11
f 53/60/12 36/95/12 35/94/12 54/61/12
